<?xml version="1.0" encoding="utf-8"?>
<!-- Generator: Adobe Illustrator 23.0.5, SVG Export Plug-In . SVG Version: 6.00 Build 0)  -->
<svg version="1.1" id="Слой_1" xmlns="http://www.w3.org/2000/svg" xmlns:xlink="http://www.w3.org/1999/xlink" x="0px" y="0px"
	 viewBox="0 0 1315 780" style="enable-background:new 0 0 1315 780;" xml:space="preserve">
<style type="text/css">
	.st0{fill:#FFFFFF;}
	.st1{fill:#FFFFFF;stroke:#FFFFFF;stroke-miterlimit:10;}
	.st2{font-family:'LIBRARY3AMsoft';}
	.st3{font-size:160px;}
	.st4{fill:#FFFFFF;stroke:#000000;stroke-miterlimit:10;}
</style>
<g>
	<g>
		<g>
			<g>
				<path class="st0" d="M826.8,52.1c-4.5-1-7.4,5.3-13.6,9c-11.2,6.8-32.4,4.8-43.2-8.2c-9.4-11.3-9.4-29.1-4.3-35
					c0.6-0.7,3-3.2,2.2-4.9c-0.7-1.6-3.7-1.7-5.3-1.9c-5.6-0.4-32.2-7.3-37.2-9.6c-1.4-0.6-4.1-2-5.5-1c-1.2,0.9-0.6,3.1-0.4,5.3
					c0.2,4.1-1.2,7.2-3.3,11.7c-5.3,11.2-16.7,16.2-17.9,16.7c-3,1.2-8.7,3.3-15.8,2.8c-19.8-1.5-35-21.8-33.5-31.2
					c0.2-1.1,0.9-4.2-0.6-5.3c-1.4-1-4,0.4-5.3,1c-4.9,2.4-31.5,9.3-37.2,9.8c-1.5,0.1-4.5,0.3-5.2,1.9c-0.8,1.7,1.6,4.2,2.2,4.9
					c5.3,6.2,4.7,34.5-16.1,45c-19.4,9.8-42.3-3.2-45-10.6c-0.3-0.8-1.2-4.1-3.1-4.3c-1.7-0.2-3.3,2.3-4.1,3.4
					c-3,4.4-22.7,23.6-27.3,26.6c-1.2,0.8-3.8,2.3-3.5,4c0.2,1.8,3.6,2.7,4.4,3c7.8,2.7,21.9,27.7,9.3,46.9
					c-11.7,17.9-38.2,17.9-44.4,12.8c-0.7-0.5-3.2-2.9-5-2.2c-1.6,0.7-1.8,3.6-1.9,5c-0.5,5.4-7.5,31.5-9.9,36.2
					c-0.7,1.3-2.1,4-1,5.3c0.9,1.2,3.2,0.7,5.5,0.6c4.2-0.2,7.2,1.2,12,3.2c11.4,5,16.6,16.3,17.1,17.5c1.2,2.7,3.4,8.3,2.8,15.4
					c-1.5,19.4-22.2,34.4-32,32.6c-1.1-0.2-4.3-1-5.5,0.4c-1.1,1.3,0.4,4,1,5.3c2.5,5,9.6,30.6,10,36.2c0.1,1.4,0.3,4.4,1.9,5
					c1.8,0.7,4.3-1.6,5-2.2c6.4-5.1,35.5-4.6,46.2,15.7c10,18.9-3.2,41.3-10.9,43.8c-0.8,0.3-4.2,1.2-4.4,3c-0.2,1.7,2.3,3.2,3.5,4
					c4.9,3.2,24,21.8,27.3,26.4c0.8,1.2,2.4,3.7,4.1,3.4c1.9-0.2,2.8-3.5,3.1-4.3c2.8-7.6,28.5-21.4,48.1-9.1
					c18.3,11.4,18.2,37.2,13,43.3c-0.6,0.7-3,3.1-2.2,4.9c0.7,1.6,3.7,1.7,5.2,1.9c5.6,0.4,32.4,7.3,37.2,9.6c1.4,0.7,4,2,5.5,1
					c1.5-1.1,0.8-4.1,0.6-5.3c-1.5-9.1,8.7-23,21.3-28.4c7.6-3.3,14.4-2.9,15.8-2.8c19.9,1.5,35.3,21.7,33.5,31.2
					c-0.2,1-1,4.2,0.4,5.3c1.4,1.1,4.2-0.4,5.5-1c9.1-4.5,27.5-9.1,37.2-9.8c1.3-0.1,4.5-0.2,5.2-1.9c0.7-1.6-1.4-3.9-2.2-4.9
					c-5.8-7-2.9-19.5-2.4-22c3.5-15.4,16.8-22.3,18.4-23.1c8.5-4.5,20.7-5.9,29.8-1.1c7.2,3.8,8.1,9.1,12.7,8.6
					c3.5-0.3,7.1-3.8,7.1-7c-0.1-6.9-17.2-11.3-19.5-11.9c-3.9-1-20.5-4.4-34.5,2.7c-6.8,3.4-11.9,8.6-11.9,8.6
					c-0.4,0.4-0.9,0.9-1,1.1c-10.6,11.5-14.6,27.9-9.6,43.1c-8.4,2.7-17,5-25.7,6.8c-4.3-19.1-21.7-33.8-42.2-34.8
					c-22.4-1-42,13.8-46.6,34.8c-8.7-1.7-17.3-4-25.7-6.8c6-18.7-1.5-39.7-18.7-50.6c-18.9-11.9-43.5-8.5-58.3,7.3
					c-6.6-5.7-12.8-11.8-18.7-18.3c14.8-13.2,19.2-35.1,9.7-53c-10.3-19.5-33.3-28.6-54.3-22c-2.8-8.2-5.2-16.5-6.9-25
					c19.8-4.2,34.7-21.1,35.7-41.1c1.2-21.8-14.2-41-35.7-45.4c0.8-4,1.9-8.2,3.1-12.6c1.2-4.4,2.5-8.5,3.9-12.4
					c19.8,5.7,41.1-1.8,51.9-18.3c11.7-17.7,8.7-41.8-7.5-56.8c5.9-6.5,12.2-12.6,18.7-18.3c13.6,14.5,36,18.7,54.4,9.5
					c20.1-10.1,29.4-32.5,22.6-52.9c8.4-2.7,17-5,25.7-6.8c4.3,19.3,21.7,33.8,42.2,34.8c21.8,1.1,41.3-13.8,46-34.8
					c8.7,1.7,17.3,4,25.7,6.8c-1.2,3.8-4.1,15.1,0.6,28.2c4.4,12,12.7,18.5,14.5,19.9c21,15.8,47.5,4.5,54.7,1.4
					c5.1-2.2,7.5-4.3,8.1-7C833.1,57.5,830.3,52.9,826.8,52.1z"/>
				<path class="st0" d="M826.8,52.1c-0.9-0.2-1.9-0.1-2.8,0.3c-0.9,0.4-1.7,1-2.4,1.6c-1.5,1.3-2.8,2.7-4.2,4s-3,2.5-4.7,3.5
					c-0.9,0.5-1.7,0.9-2.6,1.3l-1.4,0.5l-1.4,0.4c-3.7,1.1-7.7,1.4-11.6,1.2c-3.9-0.2-7.8-1-11.4-2.3c-3.7-1.3-7.1-3.2-10.2-5.6
					c-0.7-0.7-1.5-1.3-2.2-1.9l-2-2.2c-0.6-0.8-1.2-1.5-1.7-2.4c-0.5-0.8-1.1-1.6-1.5-2.5c-1.9-3.4-3.1-7.2-3.8-11
					s-0.9-7.8-0.2-11.6c0.3-1.9,0.8-3.8,1.7-5.6l0.3-0.7c0.1-0.2,0.3-0.4,0.4-0.6c0.3-0.4,0.6-0.8,0.9-1.2c0.6-0.7,1.2-1.5,1.6-2.4
					c0.2-0.4,0.3-0.9,0.3-1.4s-0.2-0.9-0.6-1.2c-0.7-0.6-1.7-0.8-2.6-1c-1-0.2-1.9-0.2-2.9-0.3s-1.9-0.3-2.9-0.5
					C751.3,9,743.7,7,736.2,5c-1.9-0.5-3.7-1.1-5.6-1.6c-1.9-0.6-3.7-1.1-5.5-2c-0.9-0.4-1.8-0.8-2.7-1.1c-0.9-0.2-2-0.4-2.6,0.3
					s-0.5,1.8-0.4,2.7c0.1,1,0.2,1.9,0.2,2.9c0.1,2-0.3,3.9-1,5.8c-0.7,1.8-1.5,3.6-2.3,5.4c-1.7,3.5-4,6.7-6.9,9.4
					c-2.8,2.7-6.1,4.9-9.6,6.7c-3.5,1.7-7.3,2.9-11.2,3.4s-7.9,0.2-11.7-0.7c-3.8-1-7.4-2.5-10.7-4.6s-6.3-4.6-9-7.4
					c-2.7-2.9-5-6.1-6.7-9.6c-0.8-1.8-1.5-3.6-1.8-5.6c-0.1-1-0.2-2-0.1-3c0.1-1,0.3-1.9,0.4-2.9c0-0.9-0.1-2-0.8-2.5
					s-1.7-0.4-2.6-0.1c-0.9,0.3-1.8,0.7-2.6,1.1c-0.9,0.4-1.8,0.7-2.7,1.1c-7.4,2.5-14.9,4.4-22.5,6.3c-1.9,0.5-3.8,0.9-5.7,1.3
					c-1.9,0.4-3.8,0.8-5.8,1c-1,0.1-1.9,0.1-2.9,0.3c-0.9,0.2-1.9,0.5-2.4,1.2s-0.2,1.7,0.2,2.5c0.5,0.8,1.1,1.6,1.7,2.3
					c1.3,1.6,1.9,3.5,2.3,5.4c0.4,1.9,0.6,3.9,0.6,5.8c0,3.9-0.5,7.8-1.5,11.6c-2,7.5-6.2,14.7-12.5,19.4
					c-6.2,4.8-14.3,7.1-22.1,6.7c-3.9-0.2-7.8-0.9-11.5-2.2c-3.7-1.3-7.3-2.9-10.5-5.2c-1.6-1.1-3.1-2.4-4.4-3.9
					c-0.6-0.8-1.2-1.6-1.7-2.5c-0.2-0.5-0.4-0.9-0.5-1.4c-0.2-0.4-0.3-0.9-0.6-1.3c-0.4-0.8-1-1.7-1.8-1.9s-1.6,0.3-2.3,1
					s-1.2,1.4-1.8,2.2s-1.2,1.6-1.9,2.3c-5.2,5.8-10.8,11.2-16.5,16.6c-1.4,1.3-2.9,2.7-4.3,3.9c-1.5,1.3-2.9,2.6-4.5,3.7
					c-0.8,0.6-1.6,1.1-2.3,1.7c-0.7,0.6-1.4,1.4-1.3,2.1c0.1,0.8,0.9,1.4,1.7,1.8c0.8,0.4,1.7,0.7,2.7,1c1.9,0.8,3.4,2.2,4.7,3.6
					c1.3,1.5,2.5,3.1,3.5,4.7c2,3.4,3.6,7,4.7,10.8c1,3.8,1.6,7.7,1.5,11.6s-0.9,7.9-2.4,11.5c-0.7,1.8-1.7,3.5-2.8,5.2
					c-1.1,1.6-2.3,3.2-3.7,4.6c-2.8,2.8-6,5.1-9.6,6.8c-7.1,3.4-15.1,4.9-22.9,4.2c-2-0.2-3.9-0.6-5.8-1.2c-0.9-0.3-1.9-0.8-2.7-1.4
					c-0.8-0.6-1.5-1.2-2.3-1.7s-1.7-0.8-2.4-0.6c-0.7,0.2-1.2,1.1-1.4,2c-0.2,0.9-0.3,1.8-0.4,2.8s-0.3,2-0.5,2.9
					c-1.6,7.7-3.6,15.2-5.8,22.6c-0.5,1.9-1.1,3.7-1.7,5.6c-0.6,1.8-1.2,3.7-2.1,5.5c-0.4,0.9-0.8,1.7-1.1,2.6
					c-0.2,0.9-0.2,1.8,0.5,2.1c0.6,0.4,1.6,0.3,2.6,0.3c1-0.1,1.9-0.2,2.9-0.2c2,0,4,0.4,5.9,1s3.7,1.4,5.5,2.2
					c3.6,1.6,6.9,3.9,9.7,6.6c2.8,2.8,5.2,6,7,9.4c1.8,3.5,3.1,7.3,3.6,11.2c0.2,2,0.3,3.9,0.2,5.9c-0.2,2-0.5,3.9-1,5.8
					c-1,3.8-2.8,7.4-5,10.7s-4.8,6.2-7.8,8.8s-6.3,4.8-9.9,6.4c-1.8,0.8-3.7,1.4-5.7,1.6c-1,0.1-2,0.1-3.1-0.1
					c-1-0.2-1.9-0.4-2.8-0.4s-1.9,0.1-2.2,0.6c-0.4,0.5-0.3,1.5,0,2.3c0.3,0.9,0.7,1.7,1.2,2.6c0.4,0.9,0.8,1.8,1.1,2.8
					c2.6,7.4,4.6,14.9,6.6,22.4c0.5,1.9,0.9,3.8,1.4,5.7c0.4,1.9,0.8,3.8,1,5.8c0.1,1,0.2,1.9,0.5,2.7c0.3,0.8,0.8,1.5,1.5,1.4
					c0.7,0,1.6-0.4,2.4-0.9s1.4-1.2,2.4-1.8c1.8-1,3.8-1.5,5.7-1.9c2-0.3,3.9-0.5,5.9-0.4c3.9,0,7.9,0.6,11.7,1.6
					c7.6,2,14.8,6,19.8,12.3c1.3,1.5,2.3,3.2,3.3,5c0.9,1.8,1.7,3.6,2.2,5.5c1.1,3.8,1.6,7.8,1.3,11.8c-0.2,4-1.1,7.8-2.5,11.5
					s-3.3,7.2-5.7,10.3c-1.2,1.5-2.6,3-4.3,4.2c-0.8,0.6-1.8,1.1-2.8,1.4c-0.9,0.3-1.8,0.6-2.5,1.1s-1.2,1.1-1,1.7
					c0.2,0.7,0.9,1.3,1.6,1.9s1.6,1,2.4,1.7c0.8,0.6,1.6,1.2,2.3,1.8c5.9,5.1,11.5,10.5,17,16c1.4,1.4,2.7,2.8,4,4.2
					c1.3,1.4,2.7,2.9,3.8,4.6c0.5,0.8,1.1,1.5,1.8,2s1.3,0.7,1.9,0.2c0.6-0.5,1-1.3,1.4-2.1c0.2-0.4,0.3-0.9,0.5-1.3
					c0.2-0.5,0.4-1,0.7-1.4c1.1-1.8,2.6-3.1,4.2-4.4c1.6-1.2,3.2-2.3,5-3.2c3.5-1.9,7.2-3.3,11-4.3c7.6-1.9,16-1.8,23.3,1.2
					c3.7,1.5,7.1,3.7,10,6.4c2.9,2.7,5.3,6,7,9.5c1.8,3.5,3,7.4,3.7,11.3s0.8,7.9,0.3,11.8c-0.3,2-0.7,3.9-1.6,5.8
					c-0.2,0.5-0.5,0.9-0.8,1.4l-0.5,0.6l-0.5,0.5c-0.6,0.7-1.2,1.5-1.5,2.2c-0.2,0.4-0.2,0.8-0.2,1c0,0.3,0.2,0.5,0.5,0.7
					c0.6,0.4,1.5,0.7,2.4,0.8c0.9,0.1,1.9,0.2,2.9,0.3c1,0.2,2,0.3,2.9,0.5c7.7,1.6,15.2,3.5,22.7,5.6c1.9,0.5,3.8,1.1,5.6,1.7
					c1.9,0.6,3.8,1.2,5.6,2.1c0.9,0.4,1.7,0.8,2.6,1c0.4,0.1,0.8,0.1,1.1,0s0.5-0.2,0.7-0.5c0.4-0.5,0.4-1.5,0.3-2.3
					c-0.1-0.9-0.3-1.8-0.4-2.9c-0.2-2.1,0.1-4.1,0.8-6c0.3-1,0.7-1.9,1-2.8c0.4-0.9,0.9-1.8,1.4-2.7c2-3.5,4.5-6.6,7.4-9.3
					c2.9-2.7,6.1-5,9.7-6.8c3.6-1.8,7.4-2.9,11.4-3.4c2-0.2,4-0.3,6-0.2c2,0.2,4,0.5,5.9,0.9c3.9,1,7.5,2.6,10.9,4.7
					s6.4,4.6,9.2,7.5c2.7,2.9,5.1,6.1,6.8,9.8c0.8,1.8,1.5,3.7,1.8,5.8c0.1,1,0.2,2.1,0,3.1c-0.2,1.1-0.4,1.9-0.4,2.8
					c-0.1,0.9,0.1,1.7,0.5,2c0.3,0.3,1.2,0.3,2,0c0.8-0.2,1.7-0.6,2.5-1.1c0.9-0.4,1.8-0.9,2.7-1.2c3.6-1.5,7.4-2.8,11.1-3.9
					c3.8-1.1,7.5-2.1,11.4-2.9c3.8-0.8,7.7-1.5,11.6-1.8c1-0.1,1.9-0.1,2.8-0.3c0.9-0.1,1.8-0.4,2.1-0.9c0.2-0.2,0.3-0.4,0.2-0.7
					c0-0.3-0.1-0.7-0.3-1c-0.4-0.7-1-1.5-1.6-2.2c-1.3-1.6-2.3-3.4-2.9-5.4c-0.6-1.9-0.9-4-1-6c-0.2-4,0.3-8,1.2-11.8
					c1.8-7.8,6.6-14.8,12.8-19.7c3.1-2.5,6.6-4.5,10.4-5.9c1.9-0.7,3.8-1.2,5.8-1.6s3.9-0.6,5.9-0.7s4,0,6,0.3s3.9,0.8,5.8,1.5
					c1.9,0.7,3.7,1.6,5.4,2.8c1.7,1.2,3.1,2.6,4.5,4c1.3,1.4,2.6,2.8,4.2,3c1.6,0.2,3.4-0.5,4.7-1.7c1.4-1.1,2.4-2.7,2.5-4.3
					c0.1-1.6-1-3.1-2.4-4.2c-1.4-1.2-3-2.1-4.8-3c-1.7-0.8-3.5-1.5-5.3-2.2c-3.6-1.3-7.3-2.3-11.1-2.9c-7.6-1.1-15.4-1-22.8,1.1
					c-3.7,1.1-7.1,2.7-10.3,4.8c-1.6,1-3.2,2.2-4.6,3.4c-0.7,0.6-1.5,1.2-2.2,1.9c-0.4,0.3-0.7,0.6-1,1l-0.5,0.5
					c-0.1,0.1-0.3,0.3-0.3,0.4v0.1l-0.1,0.1c-5.2,5.6-8.8,12.5-10.5,19.9s-1.3,15.2,1.1,22.4l0.2,0.8l-0.8,0.2
					c-8.4,2.7-17,5-25.8,6.8l-0.7,0.1l-0.2-0.7c-2.2-9.8-8-18.6-15.9-24.7s-17.8-9.6-27.8-9.6s-20,3.3-27.9,9.4s-13.7,15-15.8,24.7
					l-0.1,0.7l-0.7-0.1c-8.7-1.7-17.3-4-25.7-6.8l-0.6-0.2l0.2-0.6c3.1-9.5,2.6-20.1-1.2-29.3c-3.8-9.3-10.8-17.1-19.6-21.9
					c-8.7-4.8-19.1-6.7-29-5.1c-9.9,1.5-19.3,6.3-26.1,13.7l-0.4,0.4l-0.4-0.4c-6.6-5.7-12.9-11.8-18.8-18.3l-0.4-0.4l0.4-0.4
					c7.5-6.7,12.5-16,14-25.9c1.6-9.9-0.5-20.3-5.7-28.8c-5.2-8.6-13.4-15.2-22.8-18.7c-9.4-3.5-19.9-3.7-29.5-0.7l-0.5,0.2
					l-0.2-0.5c-2.8-8.2-5.2-16.6-6.9-25.1l-0.1-0.5l0.5-0.1c9.8-2,18.8-7.5,25.2-15.2c6.4-7.7,10.2-17.6,10.1-27.6
					c0.1-10-3.6-20-10-27.6c-6.4-7.7-15.5-13.1-25.3-15.1l-0.4-0.1l0.1-0.4l3.1-12.6l3.9-12.4l0.1-0.4l0.4,0.1
					c9.6,2.8,20.1,2.5,29.5-1c9.4-3.4,17.7-10,22.9-18.6c5.2-8.5,7.2-19,5.6-28.9c-1.5-9.9-6.6-19.2-13.9-26l-0.2-0.2l0.2-0.2
					c5.9-6.4,12.2-12.6,18.8-18.3l0.2-0.2l0.2,0.2c6.9,7.4,16.4,12.2,26.3,13.7c10,1.5,20.4-0.2,29.3-5.1
					c8.9-4.8,16.1-12.7,19.9-22.1c3.9-9.3,4.2-20,1-29.6l-0.1-0.2l0.2-0.1c8.4-2.7,17-5,25.7-6.7h0.2v0.2c2.2,9.8,8,18.7,16,24.9
					c7.9,6.2,17.9,9.7,28,9.7c10.1,0.1,20.1-3.3,28-9.6c7.9-6.2,13.7-15.2,15.9-25v-0.1h0.1c8.7,1.7,17.3,4,25.7,6.8h0.1v0.1
					c-1.6,5.3-2.3,10.9-1.9,16.5c0.4,5.6,1.9,11,4.4,16s5.9,9.5,10,13.3c4.1,3.7,9,6.6,14.3,8.3s10.9,2.3,16.5,2.1
					c5.6-0.3,11.1-1.4,16.4-3c2.7-0.8,5.3-1.8,7.9-2.8c2.6-1.1,5.2-2.1,7.4-3.8c1.1-0.9,2.1-1.9,2.5-3.2c0.5-1.3,0.5-2.7,0.1-4.1
					c-0.3-1.3-1-2.6-1.9-3.7C829.4,53.3,828.2,52.5,826.8,52.1z M826.9,52c1.4,0.3,2.6,1.2,3.5,2.3s1.6,2.3,1.9,3.7
					c0.4,1.3,0.4,2.8-0.1,4.1s-1.5,2.4-2.6,3.3c-2.2,1.7-4.9,2.8-7.4,3.8c-2.6,1.1-5.2,2-7.9,2.8c-5.3,1.6-10.9,2.7-16.4,3
					c-5.6,0.3-11.2-0.3-16.5-2.1c-5.3-1.7-10.3-4.6-14.4-8.3c-4.1-3.8-7.5-8.3-10-13.3s-4-10.5-4.4-16.1s0.2-11.2,1.9-16.6v0.1
					c-8.4-2.7-17-5-25.7-6.8h0.1c-2.2,9.9-8,18.9-15.9,25.2s-18,9.8-28.2,9.7c-10.1,0-20.2-3.5-28.2-9.8c-8-6.2-13.9-15.1-16.1-25.1
					h0.1c-8.7,1.7-17.2,4-25.7,6.8v-0.1c3.2,9.7,2.9,20.5-1,29.9c-3.8,9.4-11.1,17.4-20,22.2c-8.9,4.9-19.5,6.7-29.5,5.2
					s-19.6-6.4-26.6-13.8h0.1c-6.6,5.7-12.8,11.8-18.7,18.2v-0.1c7.4,6.9,12.5,16.2,14.1,26.2s-0.4,20.5-5.6,29.2
					c-5.2,8.7-13.6,15.3-23.1,18.8c-9.5,3.5-20.1,3.8-29.8,1h0.1l-3.9,12.4l-3.1,12.6l-0.1-0.1c9.9,2.1,19.1,7.5,25.6,15.3
					s10.2,17.8,10.2,28c0,10.1-3.7,20.2-10.2,28c-6.5,7.8-15.6,13.4-25.5,15.4l0.1-0.1c1.8,8.5,4.1,16.8,6.9,25h-0.1
					c9.7-3.1,20.4-2.8,29.9,0.7s17.8,10.2,23.1,18.9c5.3,8.6,7.4,19.2,5.8,29.2c-1.5,10-6.6,19.5-14.2,26.3v-0.1
					c5.9,6.4,12.1,12.5,18.7,18.2H538c6.9-7.4,16.4-12.4,26.5-13.9c10-1.6,20.6,0.2,29.5,5.2c8.9,4.8,16.1,12.8,19.9,22.3
					c3.9,9.4,4.4,20.1,1.3,29.8l-0.1-0.1c8.4,2.7,17,5,25.7,6.8l-0.1,0.1c2.2-10,8-19,16.1-25.2c8-6.3,18.2-9.6,28.4-9.6
					c10.2-0.1,20.3,3.5,28.3,9.7s14,15.2,16.2,25.1l-0.1-0.1c8.7-1.7,17.2-4,25.7-6.8l-0.1,0.1c-2.4-7.4-2.8-15.4-1.1-22.9
					c1.7-7.6,5.4-14.6,10.7-20.3l0,0c0.3-0.5,0.6-0.8,1-1.1c0.3-0.3,0.7-0.7,1.1-1c0.7-0.7,1.5-1.3,2.2-1.9c1.5-1.2,3.1-2.4,4.7-3.4
					c3.3-2.1,6.8-3.8,10.6-4.9c7.5-2.2,15.5-2.3,23.2-1.2c3.9,0.6,7.6,1.6,11.3,2.9c1.8,0.7,3.6,1.4,5.4,2.2c1.8,0.9,3.5,1.8,5,3.1
					c0.7,0.6,1.4,1.4,2,2.2c0.5,0.8,0.8,1.8,0.8,2.8c-0.1,2-1.4,3.7-2.9,5c-1.5,1.2-3.5,2.1-5.4,1.9c-1-0.1-1.9-0.6-2.7-1.2
					s-1.4-1.3-2.1-2c-1.3-1.4-2.7-2.8-4.3-3.9s-3.3-2-5.1-2.7s-3.7-1.2-5.6-1.4c-1.9-0.3-3.9-0.4-5.8-0.3c-7.8,0.3-15.4,3-21.5,7.9
					c-6.1,4.8-10.8,11.5-12.5,19.1c-0.9,3.8-1.4,7.7-1.2,11.5c0.2,3.9,1.2,7.8,3.7,10.8c0.6,0.7,1.3,1.5,1.7,2.4
					c0.2,0.4,0.4,0.9,0.4,1.4s-0.1,1-0.5,1.4c-0.7,0.7-1.7,1-2.7,1.2s-1.9,0.2-2.9,0.3c-3.9,0.3-7.7,1-11.5,1.8s-7.6,1.8-11.3,2.9
					s-7.4,2.3-11,3.8c-0.9,0.4-1.8,0.8-2.7,1.2c-0.9,0.4-1.8,0.9-2.7,1.1c-0.5,0.1-1,0.2-1.5,0.2s-1-0.1-1.4-0.5
					c-0.8-0.7-0.9-1.8-0.8-2.8c0-1,0.3-1.9,0.4-2.9c0.2-1,0.1-1.9,0-2.9c-0.3-1.9-0.9-3.8-1.7-5.5c-1.7-3.5-4-6.7-6.6-9.5
					c-2.7-2.8-5.7-5.3-9-7.4s-6.9-3.6-10.7-4.6c-1.9-0.5-3.8-0.8-5.7-0.9s-3.9,0-5.8,0.2c-7.8,0.8-15,4.6-20.6,10
					c-2.8,2.7-5.3,5.7-7.2,9.1c-0.5,0.8-0.9,1.7-1.3,2.6c-0.4,0.9-0.8,1.8-1,2.7c-0.6,1.8-0.9,3.8-0.7,5.7c0,1,0.3,1.9,0.4,2.9
					c0.1,1,0.1,2-0.5,2.9c-0.3,0.4-0.8,0.7-1.2,0.8c-0.5,0.1-1,0-1.5-0.1c-1-0.2-1.9-0.6-2.7-1c-1.7-0.8-3.6-1.4-5.5-2
					s-3.7-1.1-5.6-1.6c-7.5-2.1-15-4-22.7-5.6c-1-0.2-1.9-0.4-2.9-0.5s-1.9-0.2-2.9-0.3c-1-0.1-2-0.3-2.8-0.9
					c-0.4-0.3-0.7-0.8-0.8-1.3s0-1,0.2-1.5c0.4-0.9,1-1.7,1.6-2.5c0.7-0.7,1.2-1.5,1.6-2.4c0.8-1.7,1.3-3.7,1.6-5.6
					c0.5-3.8,0.4-7.8-0.3-11.6c-0.7-3.8-1.8-7.6-3.6-11c-1.7-3.5-4-6.7-6.9-9.3c-2.8-2.7-6.1-4.8-9.7-6.3c-7.2-3-15.4-3.1-22.9-1.2
					c-3.8,0.9-7.4,2.3-10.8,4.2c-1.7,0.9-3.4,2-4.9,3.2s-3,2.5-4,4.2c-0.5,0.8-0.8,1.8-1.1,2.7c-0.4,0.9-0.8,1.8-1.6,2.4
					c-0.4,0.3-0.9,0.5-1.4,0.4s-1-0.3-1.3-0.6c-0.8-0.6-1.4-1.4-1.9-2.2c-1.1-1.6-2.4-3.1-3.7-4.5s-2.7-2.8-4-4.2
					c-5.5-5.5-11.1-11-17-16c-0.7-0.6-1.5-1.2-2.3-1.8c-0.8-0.6-1.6-1.1-2.4-1.7s-1.5-1.3-1.9-2.2c-0.2-0.5-0.1-1,0.2-1.5
					c0.3-0.4,0.7-0.8,1.1-1c1.7-1.1,3.7-1.2,5.3-2.5c1.6-1.1,2.9-2.5,4.1-4.1c2.4-3.1,4.3-6.5,5.6-10.2c1.4-3.6,2.3-7.5,2.5-11.3
					c0.3-3.9-0.1-7.8-1.2-11.5c-0.6-1.9-1.3-3.7-2.2-5.4c-0.9-1.7-1.9-3.4-3.2-4.9c-4.9-6.1-12-10.1-19.5-12.1
					c-3.8-1-7.6-1.5-11.5-1.5c-1.9,0-3.9,0.1-5.8,0.4s-3.8,0.8-5.5,1.8c-0.8,0.5-1.5,1.2-2.3,1.7s-1.7,1-2.7,1c-0.5,0-1-0.2-1.4-0.6
					s-0.6-0.8-0.8-1.3c-0.3-0.9-0.4-1.9-0.5-2.9c-0.2-1.9-0.6-3.8-1-5.7c-0.4-1.9-0.9-3.8-1.4-5.7c-1.9-7.5-4-15-6.6-22.4
					c-0.3-0.9-0.7-1.8-1.1-2.7c-0.4-0.9-0.9-1.7-1.2-2.7c-0.3-0.9-0.5-2,0.1-2.9c0.3-0.4,0.8-0.6,1.3-0.8c0.5-0.1,1-0.1,1.5-0.1
					c1,0,1.9,0.2,2.9,0.4c1,0.2,1.9,0.1,2.9,0.1c1.9-0.2,3.8-0.8,5.6-1.6c3.6-1.5,6.8-3.7,9.8-6.3c2.9-2.5,5.5-5.5,7.7-8.7
					s3.9-6.8,4.9-10.5c0.5-1.9,0.8-3.8,1-5.7c0.1-1.9,0.1-3.9-0.2-5.8c-0.5-3.8-1.7-7.6-3.5-11s-4.2-6.6-6.9-9.3
					c-2.7-2.7-6-5-9.6-6.5c-3.5-1.5-7.2-3.2-11.1-3.2c-1,0-1.9,0.1-2.9,0.2c-1,0-2,0.1-2.9-0.4c-0.4-0.3-0.7-0.7-0.8-1.2
					c-0.1-0.5,0-1,0.1-1.5c0.2-1,0.7-1.8,1.1-2.7c0.9-1.7,1.4-3.6,2.1-5.4c0.6-1.8,1.2-3.7,1.7-5.6c2.2-7.5,4.2-15,5.8-22.6
					c0.2-1,0.3-1.9,0.5-2.9c0.1-1,0.2-1.9,0.4-2.9c0.2-0.9,0.7-2,1.7-2.3s2,0.2,2.8,0.6c0.9,0.5,1.6,1.2,2.3,1.7
					c0.8,0.6,1.7,1,2.6,1.3c1.8,0.7,3.7,1,5.7,1.2c7.7,0.7,15.7-0.7,22.6-4.1c3.5-1.7,6.7-4,9.4-6.7c1.3-1.4,2.6-2.9,3.7-4.5
					c1-1.6,2-3.3,2.7-5.1c1.5-3.6,2.3-7.5,2.4-11.3c0.1-3.9-0.5-7.8-1.5-11.5c-1.1-3.7-2.6-7.3-4.6-10.7c-1-1.7-2.1-3.2-3.4-4.7
					c-1.3-1.4-2.8-2.8-4.6-3.5c-0.9-0.3-1.9-0.6-2.7-1.1c-0.4-0.2-0.9-0.5-1.2-0.8c-0.4-0.3-0.7-0.8-0.7-1.3
					c-0.1-1.1,0.7-1.9,1.4-2.5c0.7-0.6,1.6-1.2,2.4-1.7c1.6-1.1,3-2.4,4.5-3.7c1.5-1.3,2.9-2.6,4.3-3.9c5.7-5.3,11.2-10.8,16.4-16.5
					c0.6-0.7,1.3-1.5,1.8-2.3s1.1-1.6,1.8-2.3c0.3-0.3,0.7-0.7,1.2-0.9c0.4-0.2,1-0.3,1.5-0.2c1,0.3,1.6,1.3,2,2.1
					c0.5,0.9,0.7,1.8,1.1,2.7c0.4,0.9,1,1.7,1.6,2.4c1.3,1.5,2.8,2.7,4.4,3.8c6.4,4.4,14.1,6.9,21.8,7.3s15.7-1.8,21.9-6.6
					c6.2-4.7,10.4-11.8,12.4-19.2c1-3.8,1.5-7.6,1.5-11.5c0-1.9-0.2-3.9-0.6-5.8c-0.4-1.9-1-3.8-2.2-5.3c-0.6-0.7-1.3-1.5-1.8-2.3
					c-0.2-0.4-0.4-0.9-0.5-1.4s0-1,0.3-1.4c0.6-0.8,1.6-1.1,2.6-1.3s1.9-0.2,2.9-0.3c1.9-0.2,3.8-0.6,5.7-1s3.8-0.8,5.7-1.3
					c7.6-1.9,15.1-3.8,22.5-6.3c0.9-0.3,1.8-0.7,2.7-1.1s1.7-0.9,2.7-1.2c0.5-0.1,1-0.2,1.4-0.3c0.5,0,1,0.1,1.4,0.4
					c0.8,0.7,0.9,1.8,0.9,2.7c0,1-0.2,1.9-0.4,2.9c-0.1,1-0.1,1.9,0.1,2.9c0.3,1.9,1,3.8,1.8,5.5c1.7,3.5,4,6.7,6.6,9.5
					c2.7,2.8,5.7,5.4,9,7.4c3.3,2.1,6.9,3.6,10.7,4.6c3.8,0.9,7.7,1.2,11.6,0.7c3.9-0.5,7.6-1.6,11.1-3.3c3.5-1.8,6.7-4,9.5-6.7
					s5.2-5.8,6.8-9.3c0.8-1.8,1.7-3.5,2.3-5.3c0.7-1.8,1-3.8,1-5.7c0-1-0.2-1.9-0.2-2.9c-0.1-0.9-0.2-2,0.5-2.8
					c0.4-0.4,0.9-0.5,1.4-0.6c0.5,0,1,0.1,1.5,0.2c0.9,0.3,1.8,0.7,2.7,1.1c1.8,0.8,3.6,1.4,5.5,2s3.7,1.1,5.6,1.6
					c7.5,2.1,15,4,22.7,5.5c1,0.2,1.9,0.4,2.9,0.5s1.9,0.1,2.9,0.3s2,0.4,2.7,1c0.4,0.3,0.6,0.8,0.6,1.3s-0.1,1-0.3,1.4
					c-0.4,0.9-1,1.7-1.7,2.4c-0.3,0.4-0.6,0.8-0.9,1.1c-0.1,0.2-0.3,0.4-0.4,0.6l-0.3,0.6c-0.9,1.7-1.4,3.6-1.7,5.5
					c-0.6,3.8-0.5,7.8,0.2,11.6s1.9,7.6,3.8,11c0.4,0.9,1,1.7,1.5,2.5s1.2,1.6,1.7,2.3l2,2.1c0.7,0.7,1.4,1.3,2.2,1.9
					c3,2.4,6.5,4.3,10.1,5.6c3.7,1.3,7.5,2.1,11.4,2.3c3.9,0.2,7.8-0.1,11.5-1.2l1.4-0.4l1.4-0.5c0.9-0.3,1.8-0.8,2.6-1.3
					c1.7-0.9,3.2-2.1,4.7-3.4c1.4-1.3,2.8-2.7,4.3-4c0.7-0.6,1.5-1.2,2.4-1.6C824.9,51.9,825.9,51.8,826.9,52z"/>
			</g>
			<g>
				<path class="st0" d="M571.5,358.6c3.7,1.3,6.7-5,13.6-8.4c7.5-3.6,18-3,25.4,1.7c13.6,8.5,14.7,28.9,10.2,34.1
					c-0.5,0.6-2.3,2.5-1.7,3.9c0.6,1.3,3,1.4,4.2,1.5c4.5,0.3,25.4,5.8,29.3,7.6c1.1,0.5,3.2,1.6,4.3,0.8c0.9-0.7,0.5-2.4,0.3-4.2
					c-0.2-3.3,0.9-5.7,2.6-9.2c4.2-8.9,13.2-12.8,14.2-13.2c2.4-1,6.8-2.6,12.4-2.2c15.6,1.2,27.6,17.2,26.4,24.6
					c-0.1,0.8-0.7,3.3,0.5,4.2c1.1,0.8,3.2-0.3,4.2-0.8c3.9-1.9,24.8-7.3,29.3-7.7c1.2-0.1,3.5-0.2,4.1-1.5c0.6-1.4-1.3-3.3-1.7-3.9
					c-4.1-4.9-3.7-27.2,12.7-35.5c15.3-7.7,33.4,2.5,35.5,8.4c0.2,0.6,1,3.2,2.4,3.4c1.4,0.2,2.6-1.8,3.3-2.7
					c2.4-3.5,17.9-18.6,21.5-21c1-0.6,3-1.9,2.8-3.2c-0.2-1.4-2.8-2.1-3.5-2.4c-6.2-2.1-17.3-21.8-7.3-37
					c9.3-14.1,30.1-14.1,35-10.1c0.5,0.4,2.5,2.3,4,1.7c1.3-0.5,1.4-2.8,1.5-4c0.4-4.3,5.9-24.9,7.8-28.6c0.5-1,1.7-3.1,0.8-4.2
					c-0.7-0.9-2.5-0.5-4.3-0.5c-3.3,0.1-5.7-0.9-9.5-2.6c-9-3.9-13.1-12.9-13.5-13.8c-0.9-2.1-2.7-6.5-2.2-12.1
					c1.2-15.3,17.5-27.1,25.3-25.7c0.8,0.2,3.4,0.8,4.3-0.3c0.8-1.1-0.3-3.1-0.8-4.2c-2-3.9-7.5-24.1-7.9-28.6
					c-0.1-1.1-0.2-3.4-1.5-4c-1.4-0.6-3.4,1.2-4,1.7c-5,4-28,3.6-36.4-12.4c-7.9-14.9,2.6-32.5,8.6-34.6c0.7-0.2,3.3-0.9,3.5-2.4
					c0.2-1.3-1.8-2.5-2.8-3.2c-3.9-2.5-19-17.2-21.5-20.9c-0.6-0.9-1.9-2.9-3.3-2.7c-1.5,0.2-2.2,2.7-2.4,3.4
					c-2.2,6-22.4,16.9-37.9,7.1c-14.4-9-14.4-29.3-10.2-34.1c0.4-0.5,2.3-2.5,1.7-3.9c-0.5-1.3-2.9-1.4-4.1-1.5
					c-4.4-0.4-25.5-5.8-29.3-7.6c-1.1-0.5-3.2-1.6-4.3-0.8c-1.2,0.8-0.6,3.3-0.5,4.2c1.2,7.2-6.9,18.1-16.8,22.4
					c-6,2.6-11.3,2.3-12.4,2.2c-15.7-1.2-27.8-17.1-26.4-24.6c0.2-0.8,0.8-3.3-0.3-4.2c-1.1-0.8-3.3,0.3-4.3,0.8
					c-7.2,3.6-21.7,7.2-29.3,7.7c-1,0.1-3.5,0.2-4.1,1.5s1.1,3.1,1.7,3.9c4.6,5.6,2.3,15.4,1.9,17.3c-2.8,12.1-13.3,17.6-14.5,18.3
					c-6.7,3.6-16.3,4.7-23.5,0.9c-5.7-3-6.4-7.2-10-6.8c-2.8,0.3-5.6,3-5.6,5.6c0.1,5.5,13.5,8.9,15.4,9.4
					c3.1,0.8,16.2,3.5,27.2-2.2c5.4-2.7,9.4-6.8,9.4-6.8c0.3-0.3,0.7-0.7,0.8-0.9c8.4-9.1,11.5-22,7.6-34c6.6-2.2,13.4-4,20.2-5.3
					c3.4,15.1,17.1,26.6,33.3,27.4c17.7,0.8,33.2-10.9,36.8-27.4c6.9,1.4,13.6,3.2,20.2,5.3c-4.8,14.7,1.2,31.3,14.8,39.9
					c14.9,9.4,34.3,6.7,46-5.8c5.2,4.5,10.1,9.3,14.8,14.4c-11.6,10.4-15.1,27.7-7.7,41.8c8.1,15.4,26.3,22.6,42.8,17.3
					c2.2,6.5,4.1,13,5.5,19.7c-15.6,3.3-27.3,16.7-28.2,32.4c-0.9,17.2,11.2,32.3,28.2,35.8c-0.7,3.2-1.5,6.5-2.4,9.9
					c-1,3.5-2,6.7-3,9.8c-15.6-4.5-32.4,1.5-41,14.4c-9.2,14-6.9,32.9,5.9,44.8c-4.7,5.1-9.7,10-14.8,14.4
					c-10.7-11.5-28.4-14.7-42.9-7.5c-15.8,7.9-23.2,25.6-17.8,41.7c-6.6,2.2-13.4,4-20.2,5.3c-3.4-15.2-17.1-26.6-33.3-27.4
					c-17.2-0.9-32.6,10.9-36.3,27.4c-6.9-1.4-13.6-3.2-20.2-5.3c0.9-2.9,3.3-11.8-0.5-22.2c-1.1-2.9-4.8-11.8-14.3-17.7
					c0,0-16.7-10.3-43.6,3.3c-0.7,0.3-2.5,1.3-3.1,3.1C567.5,354.3,569.2,357.8,571.5,358.6z"/>
				<path class="st0" d="M571.6,358.5c0.7,0.2,1.5,0.2,2.2-0.1c0.7-0.3,1.3-0.7,1.9-1.2c1.2-1,2.3-2,3.5-3c2.3-2,4.9-3.8,7.8-4.8
					c5.8-2.1,12.3-2,18.2-0.1c2.9,1,5.7,2.4,8.1,4.4c2.4,2,4.4,4.4,5.9,7.1s2.6,5.6,3.3,8.6s1,6.1,0.8,9.2c-0.1,1.5-0.3,3.1-0.8,4.6
					c-0.2,0.7-0.5,1.5-0.9,2.1c-0.4,0.7-1,1.2-1.4,1.8c-0.5,0.6-0.9,1.3-1,2c-0.1,0.4,0,0.7,0.2,1s0.5,0.5,0.9,0.6
					c1.4,0.6,3,0.4,4.5,0.7c3,0.5,6,1.2,9,1.9c3,0.7,6,1.5,8.9,2.3c3,0.8,5.9,1.6,8.8,2.7c1.5,0.5,2.8,1.4,4.3,1.5
					c0.4,0,0.7,0,1-0.2s0.4-0.5,0.5-0.9c0.1-0.7,0-1.5-0.1-2.3c-0.2-1.5-0.1-3.1,0.3-4.6c0.4-1.5,1-2.9,1.6-4.3
					c1.2-2.8,2.9-5.5,5-7.7c4.3-4.5,9.9-7.7,16-8.8c3-0.6,6.2-0.5,9.2,0.1s6,1.7,8.6,3.3c5.4,3.1,9.9,7.5,13,13
					c0.7,1.4,1.4,2.8,1.8,4.3c0.2,0.8,0.3,1.5,0.4,2.3c0,0.8,0,1.6-0.2,2.3c-0.1,0.7-0.2,1.5-0.1,2.2c0.1,0.7,0.6,1.3,1.3,1.3
					s1.4-0.2,2.1-0.5c0.7-0.3,1.4-0.7,2.1-0.9c2.9-1.1,5.9-1.9,8.8-2.8c3-0.8,5.9-1.6,8.9-2.3c3-0.7,6-1.5,9-2
					c1.5-0.3,3.1-0.2,4.5-0.7c0.7-0.3,1.2-0.8,1.1-1.5c-0.1-0.7-0.5-1.3-0.9-1.9c-0.2-0.3-0.5-0.6-0.7-0.9s-0.5-0.6-0.7-1
					c-0.4-0.7-0.7-1.4-0.9-2.2c-0.4-1.5-0.7-3.1-0.7-4.6c-0.2-3.1,0.1-6.2,0.8-9.2c1.4-6,4.4-11.8,9.2-15.8c2.4-2,5.1-3.6,8.1-4.6
					c2.9-1,6.1-1.5,9.2-1.5c6.2,0.1,12.4,1.9,17.6,5.2c1.3,0.8,2.6,1.8,3.7,2.9c0.6,0.6,1.1,1.1,1.5,1.8c0.5,0.6,0.8,1.4,1,2.1
					c0.3,0.7,0.6,1.4,1,1.9c0.4,0.6,1.1,0.8,1.7,0.4c0.6-0.3,1.1-0.9,1.5-1.5c0.2-0.3,0.4-0.6,0.7-0.9c0.2-0.3,0.5-0.6,0.7-0.9
					c2-2.4,4.2-4.6,6.3-6.8c2.2-2.2,4.4-4.3,6.6-6.4c2.2-2.1,4.5-4.2,6.9-6.2c1.2-1,2.7-1.7,3.5-2.8c0.2-0.3,0.3-0.6,0.2-0.8
					c0-0.3-0.2-0.5-0.5-0.8c-0.5-0.5-1.2-0.8-1.9-1s-1.5-0.5-2.2-0.9s-1.3-0.9-1.8-1.5c-1.1-1.1-2.1-2.3-2.9-3.6
					c-1.7-2.6-3-5.4-4-8.4c-1.9-5.9-2.2-12.5,0-18.4c2.1-5.9,6.7-10.8,12.2-13.6c2.7-1.5,5.7-2.5,8.8-3.1c3-0.6,6.2-0.9,9.3-0.7
					c0.8,0.1,1.6,0.1,2.3,0.3l1.2,0.2l1.1,0.3c0.4,0.1,0.8,0.2,1.1,0.4c0.4,0.2,0.7,0.3,1.1,0.5l1,0.7c0.3,0.3,0.6,0.5,0.9,0.7
					c0.6,0.4,1.2,0.8,1.9,1c0.6,0.1,1.1-0.1,1.4-0.7c0.6-1.2,0.5-2.8,0.8-4.4c0.5-3.1,1.3-6,2-9c0.8-3,1.6-6,2.4-8.9
					c0.9-3,1.7-5.9,2.9-8.8c0.3-0.8,0.7-1.4,1-2.1c0.3-0.7,0.5-1.4,0.3-1.9c-0.1-0.5-0.7-0.7-1.5-0.7c-0.7,0-1.5,0.1-2.3,0.1
					c-1.6,0.1-3.2-0.1-4.7-0.5s-3-1-4.4-1.6s-2.8-1.3-4.2-2.1c-1.3-0.9-2.6-1.8-3.7-2.9c-2.3-2.1-4.2-4.6-5.8-7.3s-2.6-5.7-3.1-8.8
					c-1.1-6.2,0.7-12.7,4-17.9c3.4-5.2,8.1-9.7,13.7-12.4c1.4-0.7,2.9-1.2,4.5-1.5c0.8-0.1,1.6-0.2,2.4-0.2c0.8,0.1,1.6,0.3,2.3,0.3
					c0.7,0.1,1.5,0.1,2-0.1c0.5-0.2,0.7-0.7,0.5-1.4c-0.2-1.3-1.2-2.7-1.7-4.2c-1.1-2.9-2-5.9-2.8-8.8c-0.9-3-1.7-5.9-2.4-8.9
					s-1.5-5.9-2-9.1c-0.1-0.8-0.1-1.5-0.3-2.2c-0.1-0.7-0.4-1.4-0.8-1.6c-0.4-0.2-1.1-0.1-1.7,0.3c-0.6,0.3-1.2,0.8-1.8,1.3
					c-1.4,1.1-2.9,1.5-4.5,1.8s-3.1,0.5-4.7,0.5c-3.1,0-6.3-0.3-9.3-1.1c-6-1.5-11.9-4.5-15.9-9.4c-2-2.4-3.6-5.2-4.6-8.2
					s-1.4-6.2-1.3-9.3c0.3-6.3,2.5-12.4,6.2-17.5c1-1.3,2-2.5,3.3-3.5c0.6-0.5,1.3-1,2.1-1.3s1.4-0.5,2.1-0.8
					c0.6-0.3,1.2-0.8,1.2-1.1c0.1-0.4-0.3-0.9-0.8-1.4s-1.1-0.9-1.8-1.3c-0.7-0.5-1.3-0.9-1.9-1.4c-4.7-4-9.2-8.3-13.5-12.6
					c-1.1-1.1-2.2-2.2-3.2-3.3c-1-1.1-2.1-2.3-3-3.6c-0.4-0.6-0.9-1.2-1.3-1.7c-0.5-0.5-1-0.8-1.4-0.6c-0.4,0.1-0.8,0.7-1.1,1.3
					c-0.2,0.3-0.3,0.6-0.4,1c-0.1,0.3-0.2,0.7-0.4,1.1c-0.8,1.5-2,2.7-3.2,3.7s-2.5,1.9-3.9,2.7c-2.7,1.6-5.7,2.7-8.7,3.5
					c-6,1.6-12.6,1.6-18.5-0.6s-10.9-6.8-13.7-12.4c-2.9-5.6-4.1-12-3.4-18.3c0.2-1.6,0.5-3.1,1.2-4.7c0.3-0.7,0.8-1.5,1.3-2.2
					c0.5-0.6,1-1.1,1.3-1.7c0.2-0.3,0.3-0.6,0.3-0.8s0-0.4-0.1-0.6c-0.2-0.3-0.9-0.6-1.6-0.7c-0.7-0.1-1.4-0.1-2.2-0.3
					c-0.8-0.1-1.6-0.2-2.3-0.4c-6.1-1.2-12-2.7-18-4.4c-1.5-0.4-3-0.8-4.4-1.3c-1.5-0.5-2.9-0.9-4.4-1.6c-0.7-0.3-1.4-0.6-2-0.8
					c-0.7-0.2-1.3-0.2-1.5,0c-0.3,0.2-0.4,0.9-0.4,1.5c0,0.7,0.2,1.4,0.3,2.2c0.2,1.7-0.1,3.3-0.5,4.9c-0.4,1.6-1.1,3-1.8,4.4
					c-1.5,2.8-3.5,5.2-5.8,7.4s-4.8,4.1-7.6,5.5c-2.8,1.5-5.9,2.4-9,2.8c-1.6,0.2-3.1,0.3-4.7,0.2c-1.6-0.1-3.2-0.3-4.7-0.7
					c-3.1-0.7-6-2-8.7-3.6c-5.4-3.3-9.9-7.9-12.8-13.6c-0.7-1.4-1.3-3-1.5-4.6c-0.1-0.8-0.2-1.7-0.1-2.5c0.1-0.9,0.3-1.6,0.4-2.3
					c0.1-0.7,0-1.4-0.2-1.6c-0.1-0.2-0.7-0.3-1.3-0.1s-1.3,0.5-2,0.8s-1.4,0.7-2.1,1c-6,2.4-12,4.1-18,5.4c-3,0.6-6.1,1.2-9.2,1.5
					c-0.8,0.1-1.6,0.1-2.2,0.2c-0.7,0.1-1.4,0.3-1.7,0.6c-0.2,0.1-0.2,0.2-0.2,0.4s0,0.4,0.2,0.7c0.3,0.6,0.7,1.1,1.2,1.7
					c1,1.2,1.9,2.7,2.4,4.3c0.5,1.6,0.8,3.2,0.9,4.7c0.2,3.2-0.2,6.3-0.9,9.4c-1.4,6.2-5.2,11.8-10.1,15.7c-4.9,4-11.2,6.3-17.5,6.5
					c-1.6,0.1-3.2,0-4.8-0.2s-3.1-0.6-4.6-1.2c-1.5-0.5-3-1.3-4.3-2.2c-1.3-0.9-2.5-2-3.6-3.2c-1.1-1.1-2.1-2.2-3.2-2.3
					c-1.2-0.2-2.5,0.4-3.6,1.2c-1,0.8-1.9,2.1-2,3.2s0.7,2.3,1.8,3.2c2.2,1.8,5,3,7.9,4.1c2.9,1,5.8,1.8,8.8,2.3
					c6,0.9,12.1,0.8,17.9-0.9c2.9-0.8,5.6-2.1,8.1-3.7c1.3-0.8,2.5-1.7,3.7-2.7c0.6-0.5,1.2-1,1.7-1.5c0.3-0.3,0.5-0.5,0.8-0.8
					l0.4-0.4c0.1-0.1,0.2-0.3,0.2-0.3l-0.3,0.3l0.5-0.5c4-4.4,6.9-9.8,8.2-15.6c1.3-5.8,1-12-0.8-17.6l-0.2-0.8l0.8-0.2
					c6.7-2.2,13.5-4,20.3-5.3l0.7-0.1l0.2,0.7c1.7,7.7,6.3,14.6,12.5,19.4s14,7.6,21.8,7.5c7.8,0,15.7-2.6,21.9-7.4
					s10.7-11.8,12.4-19.4L719,56l0.7,0.1c6.9,1.4,13.7,3.2,20.3,5.4l0.6,0.2l-0.2,0.6c-2.4,7.5-2,15.8,1,23
					c3,7.3,8.5,13.5,15.4,17.2c6.9,3.8,15,5.2,22.8,4s15.1-5,20.5-10.7l0.4-0.4l0.4,0.4c5.2,4.5,10.2,9.4,14.8,14.5l0.4,0.4
					l-0.4,0.4c-5.9,5.2-9.8,12.6-11,20.3c-1.2,7.8,0.4,15.9,4.5,22.6c4.1,6.7,10.5,12,17.9,14.7s15.7,2.9,23.2,0.6l0.5-0.2l0.2,0.5
					c2.2,6.5,4.1,13.1,5.5,19.8l0.1,0.5L856,190c-7.7,1.6-14.8,5.9-19.9,12c-5.1,6-8,13.8-8,21.7c-0.1,7.9,2.8,15.7,7.9,21.7
					c5,6.1,12.2,10.3,19.9,11.9l0.4,0.1l-0.1,0.4l-2.4,10l-3.1,9.8l-0.1,0.4l-0.4-0.1c-7.6-2.2-15.8-2-23.2,0.8
					c-7.4,2.7-13.9,7.8-18,14.6c-4.1,6.7-5.7,14.9-4.4,22.7c1.2,7.8,5.2,15.1,10.9,20.5l0.2,0.2l-0.2,0.2
					c-4.7,5.1-9.6,9.9-14.8,14.4l-0.2,0.2l-0.2-0.2c-5.4-5.8-12.9-9.6-20.7-10.8c-7.9-1.2-16.1,0.2-23.1,4s-12.7,10-15.7,17.4
					s-3.3,15.8-0.8,23.3l0.1,0.2l-0.2,0.1c-6.7,2.2-13.4,4-20.3,5.3h-0.2v-0.2c-1.7-7.8-6.3-14.8-12.6-19.6
					c-6.2-4.9-14.1-7.6-22.1-7.7c-7.9-0.1-15.9,2.6-22.1,7.6c-6.2,4.9-10.8,12-12.5,19.7v0.1H650c-6.9-1.4-13.6-3.2-20.3-5.3h-0.1
					v-0.1c1.1-3.6,1.7-7.4,1.6-11.2c-0.1-3.8-0.8-7.6-2.1-11.1c-1.3-3.6-3.2-6.9-5.6-9.9c-1.2-1.5-2.5-2.9-3.9-4.1
					c-1.4-1.3-3-2.4-4.6-3.4l0,0c-2.1-1.1-4.4-1.9-6.7-2.5s-4.7-0.9-7.1-1.1c-4.8-0.3-9.7,0.2-14.4,1.3c-1.2,0.2-2.3,0.6-3.5,0.9
					s-2.3,0.7-3.4,1.1l-3.4,1.3l-3.3,1.5c-1.1,0.5-2.2,0.9-3.2,1.7c-0.9,0.7-1.7,1.8-1.8,3s0.2,2.4,0.8,3.4
					C569.6,357.2,570.4,358.1,571.6,358.5z M571.5,358.6c-1.2-0.4-2-1.4-2.6-2.4c-0.6-1.1-0.9-2.3-0.8-3.5c0.1-1.2,0.8-2.3,1.8-3.1
					c1-0.8,2.1-1.2,3.2-1.7l3.3-1.5l3.4-1.3c1.1-0.5,2.3-0.8,3.4-1.1c1.2-0.3,2.3-0.7,3.5-0.9c4.7-1.1,9.6-1.6,14.4-1.3
					c4.8,0.3,9.7,1.3,14,3.6l0,0c1.6,1,3.2,2.1,4.6,3.4c1.4,1.3,2.8,2.7,4,4.1c2.4,3,4.3,6.3,5.7,9.9c1.3,3.6,2.1,7.4,2.2,11.2
					c0.1,3.8-0.4,7.7-1.6,11.3v-0.1c6.6,2.2,13.4,4,20.2,5.3h-0.1c1.8-7.8,6.3-14.9,12.6-19.9s14.2-7.7,22.2-7.6
					c8,0,15.9,2.8,22.2,7.7c6.3,4.9,11,12,12.7,19.8h-0.1c6.8-1.4,13.6-3.2,20.2-5.3v0.1c-2.6-7.6-2.3-16.1,0.8-23.6
					c3-7.5,8.7-13.7,15.8-17.5c7-3.9,15.4-5.3,23.3-4.1c7.9,1.2,15.5,5,21,10.9h-0.1c5.2-4.5,10.1-9.3,14.8-14.4v0.1
					c-5.9-5.4-9.9-12.8-11.1-20.7c-1.3-7.9,0.3-16.2,4.4-23c4.1-6.9,10.7-12.1,18.2-14.8c7.5-2.8,15.9-3,23.5-0.8h-0.1l3-9.8
					l2.4-9.9l0.1,0.1c-7.8-1.6-15.1-5.9-20.2-12.1c-5.2-6.1-8.1-14.1-8-22.1c0-8,2.9-15.9,8.1-22.1c5.1-6.2,12.3-10.5,20.2-12.2
					l-0.1,0.1c-1.4-6.7-3.3-13.3-5.5-19.7h0.1c-7.6,2.4-16.1,2.2-23.6-0.6c-7.5-2.7-14.1-8.1-18.2-14.9c-4.2-6.8-5.8-15.2-4.6-23.1
					s5.2-15.4,11.2-20.7v0.1c-4.6-5.1-9.6-9.9-14.8-14.4h0.1c-5.5,5.9-13,9.8-20.9,11s-16.2-0.2-23.2-4.1
					c-7-3.8-12.7-10.1-15.7-17.6c-3.1-7.4-3.5-15.9-1-23.5l0.1,0.1c-6.6-2.2-13.4-4-20.2-5.3l0.1-0.1c-1.7,7.9-6.3,15-12.7,19.9
					c-6.3,4.9-14.4,7.6-22.4,7.6s-16-2.7-22.4-7.7c-6.3-4.9-11.1-12-12.8-19.8l0.1,0.1c-6.8,1.4-13.6,3.2-20.2,5.3l0.1-0.1
					c1.9,5.8,2.2,12.1,0.9,18.1s-4.3,11.5-8.4,16l0,0c-0.2,0.4-0.5,0.6-0.8,0.9s-0.6,0.5-0.8,0.8c-0.6,0.5-1.2,1-1.8,1.5
					c-1.2,1-2.4,1.9-3.7,2.7c-2.6,1.7-5.4,3-8.4,3.9c-5.9,1.7-12.2,1.8-18.3,0.9c-3.1-0.4-6-1.3-8.9-2.3c-2.9-1.1-5.8-2.2-8.2-4.2
					c-0.6-0.5-1.1-1.1-1.5-1.8c-0.4-0.7-0.6-1.5-0.6-2.3c0.1-1.6,1.1-2.9,2.3-3.9s2.8-1.6,4.3-1.4c0.8,0.1,1.5,0.5,2.1,1
					s1.1,1.1,1.7,1.6c1.1,1.1,2.2,2.2,3.4,3c1.3,0.9,2.6,1.6,4.1,2.1c2.9,1.1,6,1.5,9,1.3c6.1-0.2,12.2-2.4,16.9-6.3
					c4.8-3.8,8.5-9.1,9.8-15.1c0.7-3,1.1-6.1,0.9-9.1c-0.1-1.5-0.3-3-0.8-4.5s-1.3-2.8-2.2-4c-0.5-0.6-1-1.2-1.3-1.9
					c-0.2-0.4-0.3-0.8-0.2-1.2c0-0.4,0.2-0.8,0.5-1.1c0.6-0.5,1.4-0.7,2.2-0.8s1.5-0.1,2.3-0.2c3.1-0.3,6.1-0.8,9.1-1.5
					c6-1.3,11.9-3,17.6-5.3c0.7-0.3,1.4-0.6,2.1-1c0.7-0.3,1.4-0.7,2.2-0.9c0.4-0.1,0.8-0.1,1.2-0.1s0.8,0.2,1.1,0.5
					c0.5,0.7,0.5,1.5,0.4,2.3s-0.3,1.5-0.4,2.3c-0.1,0.8,0,1.5,0.1,2.3c0.2,1.5,0.8,3,1.4,4.3c2.7,5.5,7.2,10,12.4,13.2
					s11.5,4.9,17.6,4c6.1-0.7,11.8-3.8,16.2-8c2.2-2.1,4.1-4.5,5.6-7.2c0.7-1.4,1.4-2.7,1.8-4.2c0.4-1.5,0.7-3,0.4-4.5
					c-0.1-0.8-0.3-1.5-0.3-2.3s0-1.6,0.7-2.2c0.7-0.6,1.6-0.4,2.3-0.2c0.8,0.2,1.5,0.6,2.1,0.9c1.4,0.6,2.9,1.1,4.3,1.5
					c1.5,0.5,2.9,0.9,4.4,1.3c5.9,1.6,11.9,3.2,17.9,4.4c0.8,0.1,1.5,0.3,2.3,0.4c0.8,0.1,1.5,0.1,2.3,0.3c0.7,0.2,1.6,0.4,2.1,1
					c0.3,0.3,0.4,0.8,0.3,1.1c0,0.4-0.2,0.8-0.4,1.1c-0.4,0.7-0.9,1.3-1.4,1.9c-0.5,0.6-0.9,1.2-1.2,1.9c-0.6,1.4-0.9,2.9-1.1,4.4
					c-0.7,6.1,0.5,12.4,3.3,17.8c2.8,5.5,7.6,9.9,13.3,12.1s12.2,2.2,18.1,0.6c3-0.8,5.8-1.9,8.5-3.4c1.3-0.8,2.6-1.6,3.8-2.6
					s2.3-2.1,3-3.4c0.3-0.7,0.5-1.4,0.9-2.1c0.3-0.7,0.8-1.4,1.6-1.7c0.8-0.3,1.6,0.3,2.1,0.8c0.6,0.5,1,1.2,1.4,1.8
					c0.9,1.2,1.9,2.4,3,3.5c1,1.1,2.1,2.2,3.2,3.3c4.3,4.4,8.8,8.6,13.4,12.6c0.6,0.5,1.2,1,1.8,1.4s1.3,0.8,1.9,1.4
					c0.3,0.3,0.6,0.5,0.8,0.9c0.2,0.3,0.4,0.7,0.3,1.2c-0.2,0.8-0.9,1.3-1.6,1.7c-0.7,0.4-1.4,0.6-2.2,0.8c-0.7,0.3-1.4,0.7-1.9,1.2
					c-1.2,0.9-2.2,2.1-3.1,3.3c-3.6,4.9-5.8,11-6.1,17.1c-0.1,3.1,0.2,6.1,1.2,9.1c0.9,2.9,2.5,5.6,4.4,8c4,4.7,9.7,7.7,15.6,9.2
					c3,0.7,6,1.1,9.1,1c1.5,0,3.1-0.2,4.6-0.5s3-0.8,4.2-1.7c0.6-0.5,1.2-1,1.9-1.3c0.7-0.4,1.5-0.6,2.3-0.2c0.7,0.4,1,1.3,1.2,2
					c0.2,0.8,0.2,1.5,0.3,2.3c0.4,3,1.2,6,2,9s1.6,5.9,2.4,8.9c0.9,2.9,1.7,5.9,2.8,8.8c0.5,1.5,1.4,2.7,1.7,4.3
					c0.1,0.4,0.1,0.8-0.1,1.2c-0.1,0.4-0.5,0.7-0.8,0.8c-0.7,0.3-1.6,0.2-2.3,0.2c-0.8-0.1-1.5-0.3-2.3-0.3s-1.5,0-2.3,0.2
					c-1.5,0.3-3,0.8-4.3,1.4c-5.5,2.6-10.2,7-13.5,12.1s-5,11.4-4,17.5s4.2,11.6,8.7,15.8c1.1,1.1,2.4,2,3.6,2.8
					c1.3,0.8,2.7,1.5,4.1,2.1c1.4,0.6,2.8,1.2,4.3,1.6c1.5,0.4,3,0.6,4.5,0.5c0.8,0,1.5-0.1,2.3-0.1c0.4,0,0.8,0,1.2,0.2
					c0.4,0.1,0.7,0.5,0.8,0.9c0.2,0.8,0,1.6-0.3,2.3s-0.7,1.4-1,2.1c-1.1,2.8-2,5.8-2.9,8.7c-0.9,3-1.7,5.9-2.4,8.9
					c-0.8,3-1.5,6-2,9c-0.3,1.5-0.1,3.1-0.9,4.5c-0.2,0.3-0.5,0.7-0.8,0.8c-0.4,0.2-0.8,0.2-1.2,0.1c-0.8-0.2-1.4-0.6-2.1-1.1
					c-0.3-0.2-0.6-0.5-0.9-0.7l-1-0.6c-0.3-0.2-0.7-0.3-1-0.5s-0.7-0.3-1.1-0.4l-1.1-0.3l-1.1-0.2c-0.8-0.2-1.5-0.2-2.3-0.3
					c-3.1-0.2-6.1,0.1-9.1,0.7s-5.9,1.6-8.6,3.1c-5.4,2.8-9.9,7.6-12,13.4s-1.9,12.2,0,18.1c0.9,2.9,2.2,5.7,3.9,8.3
					c0.8,1.3,1.8,2.5,2.9,3.6c0.5,0.5,1.1,1,1.8,1.4c0.6,0.4,1.4,0.7,2.1,0.9c0.7,0.3,1.4,0.6,2,1.1c0.3,0.3,0.5,0.6,0.6,1
					s-0.1,0.8-0.3,1.1c-0.9,1.3-2.4,1.9-3.6,2.9c-2.4,1.9-4.6,4-6.9,6.1c-2.2,2.1-4.4,4.3-6.6,6.4c-2.2,2.2-4.3,4.4-6.3,6.7
					c-1,1.1-1.6,2.7-3.1,3.4c-0.3,0.2-0.8,0.3-1.2,0.1c-0.4-0.1-0.7-0.4-1-0.7c-0.5-0.6-0.8-1.3-1.1-2c-0.4-1.5-1.4-2.7-2.5-3.8
					c-1.1-1.1-2.3-2-3.6-2.8c-5.2-3.3-11.3-5.1-17.4-5.2c-3.1,0-6.1,0.4-9,1.4s-5.6,2.5-7.9,4.5c-4.7,4-7.8,9.7-9.1,15.6
					c-0.7,3-1,6.1-0.8,9.1c0.1,1.5,0.3,3.1,0.7,4.5c0.2,0.7,0.5,1.5,0.9,2.1c0.4,0.7,0.9,1.2,1.4,1.8c0.5,0.6,0.9,1.3,1,2.1
					c0,0.4-0.1,0.8-0.3,1.1c-0.3,0.3-0.6,0.5-1,0.7c-1.5,0.6-3.1,0.4-4.5,0.7c-3,0.5-6,1.2-9,2c-3,0.7-6,1.5-8.9,2.3
					c-3,0.8-5.9,1.7-8.8,2.7c-1.4,0.5-2.7,1.5-4.3,1.5c-0.4,0-0.8-0.1-1.1-0.4s-0.4-0.7-0.5-1.1c-0.1-0.8-0.1-1.6,0.1-2.3
					c0.1-0.8,0.2-1.5,0.2-2.3c-0.1-0.8-0.2-1.5-0.4-2.3c-0.4-1.5-1-2.9-1.7-4.2c-3-5.4-7.5-9.8-12.8-12.9c-2.7-1.5-5.6-2.6-8.6-3.2
					s-6.1-0.6-9.1-0.1c-6.1,1.1-11.6,4.3-15.9,8.7c-2.2,2.2-3.8,4.9-5,7.7c-0.6,1.4-1.3,2.8-1.6,4.3c-0.4,1.5-0.5,3-0.3,4.6
					c0.1,0.8,0.2,1.5,0.1,2.3c-0.1,0.4-0.2,0.8-0.6,1c-0.3,0.2-0.8,0.3-1.1,0.3c-1.6-0.1-2.9-1.1-4.3-1.6c-2.9-1-5.9-1.9-8.8-2.7
					c-3-0.8-5.9-1.6-8.9-2.3c-3-0.7-6-1.4-9-1.9c-1.5-0.3-3.1-0.1-4.5-0.7c-0.4-0.2-0.7-0.4-0.9-0.7c-0.2-0.3-0.3-0.8-0.2-1.1
					c0.1-0.8,0.6-1.5,1-2.1c2.2-2.2,2.9-5.4,3.1-8.4c0.2-3.1-0.1-6.1-0.8-9.1s-1.8-5.9-3.3-8.6s-3.5-5.1-5.8-7c-2.4-2-5.1-3.4-8-4.4
					c-5.8-1.9-12.3-2-18.1,0.1c-2.9,1-5.5,2.8-7.8,4.8c-1.2,1-2.3,2.1-3.5,3c-0.6,0.5-1.2,0.9-2,1.2
					C573.1,358.8,572.3,358.9,571.5,358.6z"/>
			</g>
			<path class="st1" d="M622.5,105.8c-66.8,33.3-93.2,113.5-59,178.6c16.7,31.5,44.8,54.9,79.5,65.7c34.7,10.9,71.5,7.9,103.9-8.3
				c12.8-6.5,24.3-14.7,34.2-24.3c15-14.7,26.6-32.8,33.2-53.2c11.1-33.8,8.1-69.7-8.6-101.2C771.5,98.2,689.4,72.5,622.5,105.8z
				 M796.3,168.1c15.3,29,18,62.1,7.8,93.1c-10.3,31-32.3,56.3-62.1,71.3c-29.8,14.9-63.7,17.5-95.6,7.6
				c-31.9-9.9-57.8-31.5-73.2-60.5c-25.5-48.3-14.6-105.6,22.9-142.1c9-8.8,19.5-16.2,31.3-22.3C688.9,84.4,764.7,108.3,796.3,168.1
				z"/>
			<g>
				<path class="st1" d="M691.3,279.6L732.4,164l35.8,112.5c1,3.2,3.5,5,6.8,5h7.4c0.9,0,1.8-0.4,2.2-1.1s0.7-1.6,0.4-2.4l-45.3-139
					l-0.4-1.4c-0.3-1.1-1.5-2-2.8-2h-7.7c-1.2,0-2.2,0.9-2.7,1.9l-49.9,140.3c-0.7,2,0.9,4,2.8,4h8.9
					C689.8,281.7,690.8,280.9,691.3,279.6z"/>
				<path class="st1" d="M587.3,281.7h6.8c3.4,0,6-1.9,7.1-5l36-112.7l30.2,82.6c0.4,1.1,1.5,1.9,2.7,1.9s2.2-0.9,2.7-1.9l4.7-13.2
					c0.1-0.6,0.1-1.1,0-1.7L644,138.9l-0.4-1.4c-0.4-1.1-1.5-1.9-2.7-1.9h-8c-1.2,0-2.4,0.9-2.8,1.9L584.5,278
					c-0.3,0.9-0.1,1.7,0.4,2.4C585.5,281.3,586.4,281.7,587.3,281.7z"/>
			</g>
		</g>
	</g>
</g>
<text transform="matrix(1 0 0 1 0 720.6572)" class="st0 st2 st3">M e a t S o f t</text>
<rect x="1042" y="523.2" class="st0" width="1.3" height="2.7"/>
<path class="st4" d="M1459,252.9"/>
</svg>
