<?xml version="1.0" encoding="utf-8"?>
<!-- Generator: Adobe Illustrator 23.0.2, SVG Export Plug-In . SVG Version: 6.00 Build 0)  -->
<svg version="1.1" id="Calque_1" xmlns="http://www.w3.org/2000/svg" xmlns:xlink="http://www.w3.org/1999/xlink" x="0px" y="0px"
	 viewBox="0 0 1021.45 311.89" style="enable-background:new 0 0 1021.45 311.89;" xml:space="preserve">
<style type="text/css">
	.st0{fill:#BF4A33;}
</style>
<g>
	<path class="st0" d="M264.5,149.63L163.94,49.08l-0.19-0.19c-0.14-0.14-0.28-0.25-0.42-0.35c-0.11-0.07-0.21-0.14-0.33-0.21
		c-0.16-0.09-0.33-0.16-0.53-0.23c-0.01,0-0.01,0-0.02,0c-0.38-0.14-0.77-0.24-1.17-0.24c-0.18,0-0.33,0.02-0.51,0.05
		c0,0-0.02-0.02-0.04,0c-57.24,0-103.8,46.56-103.8,103.78v0.51v0.02v99.76c0,1.94,1.58,3.5,3.5,3.5h100.3h0.56H261
		c1.91,0,3.48-1.54,3.5-3.47l1.02-99.86C265.53,151.2,265.17,150.29,264.5,149.63z M163.82,53.9l94.28,94.29l-94.21-0.02
		c-0.3,0-0.58,0.03-0.86,0.11v-93.8v-1.37L163.82,53.9z M63.94,151.69c0-1.02,0.02-2.05,0.05-3.05l93.68-93.68
		c0.61-0.02,1.23-0.03,1.86-0.03v193.52c-52.57-0.63-95.33-43.58-95.59-96.25V151.69z M163.03,155.07c0.28,0.07,0.56,0.11,0.86,0.11
		l93.54,0.02c-1.82,50.88-43.32,92.05-94.4,93.26V155.07z M152.4,55.28l-88.09,88.09C68.3,96.62,105.67,59.27,152.4,55.28z
		 M60.44,251.97v-73.54c9.58,35.76,37.84,64,73.6,73.54H60.44z M261,251.97h-73.56c36.79-9.84,65.63-39.47,74.35-76.68L261,251.97z"
		/>
</g>
<g>
	<rect x="330.36" y="53.11" class="st0" width="3.5" height="202.37"/>
</g>
<g>
	<path class="st0" d="M405.69,106.01c0,25.78,19.41,48.22,49.44,48.22c9.71,0,21.38-1.97,31.24-9.55v-29.12h-31.69v-6.37h38.52
		v38.21c-12.43,11.22-27.45,13.34-38.21,13.34c-33.06,0-56.71-24.87-56.71-54.74c0-30.94,25.93-54.74,54.29-54.74
		c14.1,0,26.54,1.97,37.76,9.71l-3.03,5.76c-11.98-8.04-22.9-8.95-34.73-8.95C427.98,57.78,405.69,78.71,405.69,106.01z"/>
</g>
<g>
	<path class="st0" d="M590.85,159.08H526.7V52.93h64.15v6.22h-57.02v44.89h49.89v6.22h-49.89v42.76h57.02V159.08z"/>
</g>
<g>
	<path class="st0" d="M621.78,78.71c0,6.37,2.58,14.1,17.74,19.11l18.5,6.07c13.04,4.25,24.87,14.25,24.87,28.05
		c0,15.92-13.65,28.81-35.64,28.81c-19.87,0-32.91-10.92-37.46-22.29l7.13-1.97c3.34,8.64,13.8,17.74,30.18,17.74
		c17.89,0,28.36-10.16,28.36-21.99c0-11.83-10.31-18.65-19.71-21.68l-18.5-6.07c-19.26-6.22-23.05-16.83-22.9-25.48
		c0-17.44,15.47-27.75,32.91-27.75c16.83,0,29.12,8.95,32.45,21.84l-6.67,2.12c-2.58-10.46-12.43-17.44-25.78-17.44
		C633.46,57.78,621.78,65.52,621.78,78.71z"/>
</g>
<g>
	<path class="st0" d="M778.51,52.93v6.22h-39.27v99.93h-7.13V59.15h-39.43v-6.22H778.51z"/>
</g>
<g>
	<path class="st0" d="M864.73,159.08h-64.15V52.93h64.15v6.22h-57.02v44.89h49.89v6.22h-49.89v42.76h57.02V159.08z"/>
</g>
<g>
	<path class="st0" d="M903.57,135.27l-9.55,23.81h-7.58l42.91-106.15h9.1l43.07,106.15h-7.58l-9.71-23.81H903.57z M961.8,129.06
		l-27.9-69.3l-27.9,69.3H961.8z"/>
</g>
<g>
	<path class="st0" d="M415.29,255.47l-6.97-11.97h-4.62v11.97h-3.82V226.2h9.45c2.21,0,4.08,0.38,5.61,1.13
		c1.53,0.76,2.67,1.78,3.42,3.07c0.76,1.29,1.13,2.76,1.13,4.41c0,2.02-0.58,3.79-1.74,5.33c-1.16,1.54-2.91,2.56-5.23,3.07
		l7.35,12.26H415.29z M403.69,240.44h5.63c2.07,0,3.63-0.51,4.66-1.53s1.55-2.39,1.55-4.1c0-1.76-0.5-3.14-1.51-4.12
		c-1.01-0.98-2.58-1.47-4.7-1.47h-5.63V240.44z"/>
	<path class="st0" d="M445.48,245.27h-18.4c0.11,2.27,0.88,4.06,2.29,5.38s3.14,1.97,5.19,1.97c1.65,0,3.03-0.38,4.14-1.15
		c1.11-0.77,1.88-1.8,2.33-3.09h4.12c-0.62,2.21-1.85,4.01-3.7,5.4c-1.85,1.39-4.14,2.08-6.89,2.08c-2.18,0-4.14-0.49-5.86-1.47
		s-3.07-2.37-4.05-4.18c-0.98-1.81-1.47-3.9-1.47-6.28s0.48-4.47,1.43-6.26c0.95-1.79,2.29-3.17,4.01-4.14
		c1.72-0.97,3.7-1.45,5.94-1.45c2.18,0,4.11,0.48,5.77,1.43c1.67,0.95,2.96,2.25,3.88,3.91c0.92,1.65,1.39,3.51,1.39,5.59
		C445.61,243.7,445.57,244.46,445.48,245.27z M440.7,238.61c-0.64-1.08-1.52-1.9-2.63-2.46c-1.11-0.56-2.33-0.84-3.68-0.84
		c-1.96,0-3.63,0.64-5,1.91c-1.37,1.27-2.13,3.03-2.27,5.27h14.53C441.66,240.98,441.34,239.69,440.7,238.61z"/>
	<path class="st0" d="M454.51,235.61v13.57c0,1.12,0.24,1.91,0.71,2.37c0.48,0.46,1.3,0.69,2.48,0.69h2.81v3.23h-3.44
		c-2.13,0-3.72-0.49-4.79-1.47c-1.06-0.98-1.6-2.59-1.6-4.83v-13.57h-2.98v-3.15h2.98v-5.8h3.82v5.8h6.01v3.15H454.51z"/>
	<path class="st0" d="M480.47,233.15c1.4,0.74,2.5,1.86,3.3,3.34s1.2,3.29,1.2,5.42v13.57h-3.78v-13.02c0-2.3-0.57-4.05-1.72-5.27
		s-2.72-1.83-4.7-1.83c-2.02,0-3.62,0.63-4.81,1.89s-1.79,3.09-1.79,5.5v12.73h-3.82v-31.08h3.82v11.34
		c0.76-1.18,1.8-2.08,3.13-2.73c1.33-0.64,2.82-0.97,4.47-0.97C477.5,232.04,479.07,232.41,480.47,233.15z"/>
	<path class="st0" d="M490.55,227.96c-0.5-0.5-0.76-1.12-0.76-1.85s0.25-1.34,0.76-1.85s1.12-0.76,1.85-0.76
		c0.7,0,1.29,0.25,1.79,0.76c0.49,0.5,0.73,1.12,0.73,1.85s-0.25,1.34-0.73,1.85c-0.49,0.5-1.09,0.76-1.79,0.76
		C491.67,228.72,491.05,228.47,490.55,227.96z M494.24,232.46v23.02h-3.82v-23.02H494.24z"/>
	<path class="st0" d="M517.97,234.58c1.74,1.69,2.6,4.14,2.6,7.33v13.57h-3.78v-13.02c0-2.3-0.57-4.05-1.72-5.27
		s-2.72-1.83-4.7-1.83c-2.02,0-3.62,0.63-4.81,1.89s-1.79,3.09-1.79,5.5v12.73h-3.82v-23.02h3.82v3.28
		c0.76-1.18,1.79-2.08,3.09-2.73c1.3-0.64,2.74-0.97,4.31-0.97C513.97,232.04,516.24,232.89,517.97,234.58z"/>
	<path class="st0" d="M538.89,255.47l-9.03-10.16v10.16h-3.82v-31.08h3.82v18.27l8.86-10.21h5.33l-10.84,11.47l10.88,11.55H538.89z"
		/>
	<path class="st0" d="M578.71,255.47l-4.87-6.05c-0.42,1.85-1.39,3.37-2.92,4.58s-3.3,1.81-5.31,1.81c-1.57,0-3.02-0.37-4.35-1.11
		c-1.33-0.74-2.39-1.78-3.17-3.11c-0.79-1.33-1.18-2.85-1.18-4.56c0-1.68,0.36-3.16,1.09-4.45c0.73-1.29,1.71-2.29,2.94-3
		c1.23-0.71,2.58-1.07,4.03-1.07h0.34l-0.42-0.46c-1.01-1.26-1.75-2.39-2.23-3.38c-0.48-0.99-0.71-2.05-0.71-3.17
		c0-1.18,0.29-2.28,0.88-3.32c0.59-1.04,1.45-1.88,2.58-2.52c1.13-0.64,2.49-0.97,4.05-0.97c1.62,0,3.02,0.32,4.18,0.95
		c1.16,0.63,2.04,1.46,2.63,2.5c0.59,1.04,0.88,2.13,0.88,3.28c0,0.62-0.1,1.25-0.29,1.89h-3.78c0.17-0.42,0.25-0.92,0.25-1.51
		c0-1.15-0.35-2.08-1.05-2.79s-1.64-1.07-2.81-1.07c-1.12,0-2.02,0.35-2.69,1.05c-0.67,0.7-1.01,1.55-1.01,2.56
		c0,0.73,0.14,1.41,0.42,2.04c0.28,0.63,0.76,1.36,1.43,2.2l15.67,19.7H578.71z M569.34,251.04c1.01-1.05,1.51-2.34,1.51-3.88
		c0-1.04-0.25-1.99-0.76-2.86c-0.5-0.87-1.17-1.55-2-2.04c-0.83-0.49-1.72-0.73-2.67-0.73c-1.46,0-2.67,0.5-3.65,1.51
		s-1.47,2.32-1.47,3.95s0.52,2.97,1.55,4.03c1.04,1.06,2.3,1.6,3.78,1.6C567.1,252.62,568.33,252.09,569.34,251.04z"/>
	<path class="st0" d="M613.31,255.47l-6.97-11.97h-4.62v11.97h-3.82V226.2h9.45c2.21,0,4.08,0.38,5.61,1.13
		c1.53,0.76,2.67,1.78,3.42,3.07c0.76,1.29,1.13,2.76,1.13,4.41c0,2.02-0.58,3.79-1.74,5.33c-1.16,1.54-2.91,2.56-5.23,3.07
		l7.35,12.26H613.31z M601.72,240.44h5.63c2.07,0,3.63-0.51,4.66-1.53s1.55-2.39,1.55-4.1c0-1.76-0.5-3.14-1.51-4.12
		c-1.01-0.98-2.58-1.47-4.7-1.47h-5.63V240.44z"/>
	<path class="st0" d="M643.51,245.27h-18.4c0.11,2.27,0.88,4.06,2.29,5.38s3.14,1.97,5.19,1.97c1.65,0,3.03-0.38,4.14-1.15
		c1.11-0.77,1.88-1.8,2.33-3.09h4.12c-0.62,2.21-1.85,4.01-3.7,5.4c-1.85,1.39-4.14,2.08-6.89,2.08c-2.18,0-4.14-0.49-5.86-1.47
		s-3.07-2.37-4.05-4.18c-0.98-1.81-1.47-3.9-1.47-6.28s0.48-4.47,1.43-6.26c0.95-1.79,2.29-3.17,4.01-4.14
		c1.72-0.97,3.7-1.45,5.94-1.45c2.18,0,4.11,0.48,5.77,1.43c1.67,0.95,2.96,2.25,3.88,3.91c0.92,1.65,1.39,3.51,1.39,5.59
		C643.64,243.7,643.59,244.46,643.51,245.27z M638.72,238.61c-0.64-1.08-1.52-1.9-2.63-2.46c-1.11-0.56-2.33-0.84-3.68-0.84
		c-1.96,0-3.63,0.64-5,1.91c-1.37,1.27-2.13,3.03-2.27,5.27h14.53C639.69,240.98,639.37,239.69,638.72,238.61z"/>
	<path class="st0" d="M651.26,254.95c-1.39-0.6-2.49-1.44-3.3-2.52c-0.81-1.08-1.26-2.32-1.34-3.72h3.95
		c0.11,1.2,0.65,2.18,1.62,2.94s2.23,1.13,3.8,1.13c1.48,0,2.64-0.33,3.46-0.99s1.24-1.52,1.24-2.58c0-1.01-0.45-1.76-1.34-2.25
		c-0.9-0.49-2.28-0.97-4.16-1.45c-1.71-0.45-3.09-0.9-4.16-1.34c-1.06-0.45-1.97-1.11-2.73-2s-1.13-2.05-1.13-3.51
		c0-1.2,0.34-2.31,1.01-3.32c0.67-1.01,1.64-1.81,2.92-2.39c1.27-0.59,2.75-0.88,4.43-0.88c2.55,0,4.61,0.64,6.17,1.93
		c1.57,1.29,2.41,3.05,2.52,5.29h-3.82c-0.08-1.26-0.57-2.27-1.45-3.02c-0.88-0.76-2.07-1.13-3.55-1.13c-1.4,0-2.5,0.31-3.3,0.92
		s-1.2,1.43-1.2,2.44c0,0.78,0.25,1.42,0.76,1.91c0.5,0.49,1.12,0.87,1.85,1.13c0.73,0.27,1.76,0.6,3.11,0.99
		c1.68,0.45,3.02,0.89,4.03,1.32c1.01,0.43,1.88,1.07,2.6,1.91c0.73,0.84,1.09,1.96,1.09,3.36c0,1.29-0.34,2.44-1.03,3.44
		c-0.69,1.01-1.66,1.81-2.92,2.39s-2.73,0.88-4.41,0.88C654.22,255.85,652.65,255.55,651.26,254.95z"/>
	<path class="st0" d="M673.18,254.38c-1.75-0.98-3.12-2.37-4.12-4.18c-0.99-1.81-1.49-3.9-1.49-6.28c0-2.35,0.51-4.43,1.53-6.24
		c1.02-1.81,2.42-3.19,4.18-4.16c1.76-0.97,3.74-1.45,5.92-1.45c2.18,0,4.16,0.48,5.92,1.45c1.76,0.97,3.16,2.34,4.18,4.14
		c1.02,1.79,1.53,3.88,1.53,6.26s-0.53,4.47-1.58,6.28c-1.05,1.81-2.47,3.2-4.26,4.18c-1.79,0.98-3.78,1.47-5.96,1.47
		C676.88,255.85,674.93,255.36,673.18,254.38z M682.91,251.63c1.2-0.66,2.18-1.64,2.92-2.96c0.74-1.32,1.11-2.9,1.11-4.75
		s-0.36-3.42-1.09-4.72c-0.73-1.3-1.68-2.28-2.86-2.92c-1.18-0.64-2.45-0.97-3.82-0.97c-1.4,0-2.68,0.32-3.84,0.97
		c-1.16,0.64-2.09,1.62-2.79,2.92c-0.7,1.3-1.05,2.88-1.05,4.72c0,1.88,0.34,3.46,1.03,4.77c0.69,1.3,1.6,2.28,2.75,2.94
		c1.15,0.66,2.41,0.99,3.78,0.99C680.41,252.62,681.7,252.29,682.91,251.63z"/>
	<path class="st0" d="M698.91,224.39v31.08h-3.82v-31.08H698.91z"/>
	<path class="st0" d="M713.19,251.86l7.14-19.4h4.12l-9.03,23.02h-4.49l-9.03-23.02H706L713.19,251.86z"/>
	<path class="st0" d="M748.26,245.27h-18.4c0.11,2.27,0.88,4.06,2.29,5.38s3.14,1.97,5.19,1.97c1.65,0,3.03-0.38,4.14-1.15
		c1.11-0.77,1.88-1.8,2.33-3.09h4.12c-0.62,2.21-1.85,4.01-3.7,5.4c-1.85,1.39-4.14,2.08-6.89,2.08c-2.18,0-4.14-0.49-5.86-1.47
		s-3.07-2.37-4.05-4.18c-0.98-1.81-1.47-3.9-1.47-6.28s0.48-4.47,1.43-6.26c0.95-1.79,2.29-3.17,4.01-4.14
		c1.72-0.97,3.7-1.45,5.94-1.45c2.18,0,4.11,0.48,5.77,1.43c1.67,0.95,2.96,2.25,3.88,3.91c0.92,1.65,1.39,3.51,1.39,5.59
		C748.38,243.7,748.34,244.46,748.26,245.27z M743.47,238.61c-0.64-1.08-1.52-1.9-2.63-2.46c-1.11-0.56-2.33-0.84-3.68-0.84
		c-1.96,0-3.63,0.64-5,1.91c-1.37,1.27-2.13,3.03-2.27,5.27h14.53C744.43,240.98,744.11,239.69,743.47,238.61z"/>
	<path class="st0" d="M779.76,255.47l-6.97-11.97h-4.62v11.97h-3.82V226.2h9.45c2.21,0,4.08,0.38,5.61,1.13
		c1.53,0.76,2.67,1.78,3.42,3.07c0.76,1.29,1.13,2.76,1.13,4.41c0,2.02-0.58,3.79-1.74,5.33c-1.16,1.54-2.91,2.56-5.23,3.07
		l7.35,12.26H779.76z M768.16,240.44h5.63c2.07,0,3.63-0.51,4.66-1.53s1.55-2.39,1.55-4.1c0-1.76-0.5-3.14-1.51-4.12
		c-1.01-0.98-2.58-1.47-4.7-1.47h-5.63V240.44z"/>
	<path class="st0" d="M809.95,245.27h-18.4c0.11,2.27,0.88,4.06,2.29,5.38s3.14,1.97,5.19,1.97c1.65,0,3.03-0.38,4.14-1.15
		c1.11-0.77,1.88-1.8,2.33-3.09h4.12c-0.62,2.21-1.85,4.01-3.7,5.4c-1.85,1.39-4.14,2.08-6.89,2.08c-2.18,0-4.14-0.49-5.86-1.47
		s-3.07-2.37-4.05-4.18c-0.98-1.81-1.47-3.9-1.47-6.28s0.48-4.47,1.43-6.26c0.95-1.79,2.29-3.17,4.01-4.14
		c1.72-0.97,3.7-1.45,5.94-1.45c2.18,0,4.11,0.48,5.77,1.43c1.67,0.95,2.96,2.25,3.88,3.91c0.92,1.65,1.39,3.51,1.39,5.59
		C810.08,243.7,810.04,244.46,809.95,245.27z M805.17,238.61c-0.64-1.08-1.52-1.9-2.63-2.46c-1.11-0.56-2.33-0.84-3.68-0.84
		c-1.96,0-3.63,0.64-5,1.91c-1.37,1.27-2.13,3.03-2.27,5.27h14.53C806.13,240.98,805.81,239.69,805.17,238.61z"/>
	<path class="st0" d="M814.32,237.69c0.95-1.78,2.26-3.16,3.93-4.14c1.67-0.98,3.52-1.47,5.56-1.47c2.02,0,3.77,0.43,5.25,1.3
		c1.48,0.87,2.59,1.96,3.32,3.28v-4.2h3.86v23.02h-3.86v-4.28c-0.76,1.34-1.88,2.46-3.38,3.34c-1.5,0.88-3.24,1.32-5.23,1.32
		c-2.04,0-3.89-0.5-5.54-1.51s-2.95-2.42-3.91-4.24c-0.95-1.82-1.43-3.89-1.43-6.22C812.89,241.53,813.37,239.47,814.32,237.69z
		 M831.33,239.39c-0.7-1.29-1.65-2.27-2.83-2.96c-1.19-0.69-2.5-1.03-3.93-1.03c-1.43,0-2.73,0.34-3.91,1.01
		c-1.18,0.67-2.11,1.65-2.81,2.94c-0.7,1.29-1.05,2.8-1.05,4.54c0,1.76,0.35,3.3,1.05,4.6s1.64,2.3,2.81,2.98s2.48,1.03,3.91,1.03
		c1.43,0,2.74-0.34,3.93-1.03c1.19-0.69,2.13-1.68,2.83-2.98c0.7-1.3,1.05-2.82,1.05-4.56
		C832.38,242.19,832.03,240.68,831.33,239.39z"/>
	<path class="st0" d="M845.74,224.39v31.08h-3.82v-31.08H845.74z"/>
	<path class="st0" d="M866.99,229.18v10.04h10.67v2.94h-10.67v10.29h11.93v3.02h-15.75v-29.32h15.75v3.02H866.99z"/>
	<path class="st0" d="M887.29,254.95c-1.39-0.6-2.49-1.44-3.3-2.52c-0.81-1.08-1.26-2.32-1.34-3.72h3.95
		c0.11,1.2,0.65,2.18,1.62,2.94s2.23,1.13,3.8,1.13c1.48,0,2.64-0.33,3.46-0.99s1.24-1.52,1.24-2.58c0-1.01-0.45-1.76-1.34-2.25
		c-0.9-0.49-2.28-0.97-4.16-1.45c-1.71-0.45-3.09-0.9-4.16-1.34c-1.06-0.45-1.97-1.11-2.73-2s-1.13-2.05-1.13-3.51
		c0-1.2,0.34-2.31,1.01-3.32c0.67-1.01,1.64-1.81,2.92-2.39c1.27-0.59,2.75-0.88,4.43-0.88c2.55,0,4.61,0.64,6.17,1.93
		c1.57,1.29,2.41,3.05,2.52,5.29h-3.82c-0.08-1.26-0.57-2.27-1.45-3.02c-0.88-0.76-2.07-1.13-3.55-1.13c-1.4,0-2.5,0.31-3.3,0.92
		s-1.2,1.43-1.2,2.44c0,0.78,0.25,1.42,0.76,1.91c0.5,0.49,1.12,0.87,1.85,1.13c0.73,0.27,1.76,0.6,3.11,0.99
		c1.68,0.45,3.02,0.89,4.03,1.32c1.01,0.43,1.88,1.07,2.6,1.91c0.73,0.84,1.09,1.96,1.09,3.36c0,1.29-0.34,2.44-1.03,3.44
		c-0.69,1.01-1.66,1.81-2.92,2.39s-2.73,0.88-4.41,0.88C890.26,255.85,888.68,255.55,887.29,254.95z"/>
	<path class="st0" d="M909.7,235.61v13.57c0,1.12,0.24,1.91,0.71,2.37c0.48,0.46,1.3,0.69,2.48,0.69h2.81v3.23h-3.44
		c-2.13,0-3.72-0.49-4.79-1.47c-1.06-0.98-1.6-2.59-1.6-4.83v-13.57h-2.98v-3.15h2.98v-5.8h3.82v5.8h6.01v3.15H909.7z"/>
	<path class="st0" d="M919.53,237.69c0.95-1.78,2.26-3.16,3.93-4.14c1.67-0.98,3.52-1.47,5.56-1.47c2.02,0,3.77,0.43,5.25,1.3
		c1.48,0.87,2.59,1.96,3.32,3.28v-4.2h3.86v23.02h-3.86v-4.28c-0.76,1.34-1.88,2.46-3.38,3.34c-1.5,0.88-3.24,1.32-5.23,1.32
		c-2.04,0-3.89-0.5-5.54-1.51s-2.95-2.42-3.91-4.24c-0.95-1.82-1.43-3.89-1.43-6.22C918.1,241.53,918.58,239.47,919.53,237.69z
		 M936.54,239.39c-0.7-1.29-1.65-2.27-2.83-2.96c-1.19-0.69-2.5-1.03-3.93-1.03c-1.43,0-2.73,0.34-3.91,1.01
		c-1.18,0.67-2.11,1.65-2.81,2.94c-0.7,1.29-1.05,2.8-1.05,4.54c0,1.76,0.35,3.3,1.05,4.6s1.64,2.3,2.81,2.98s2.48,1.03,3.91,1.03
		c1.43,0,2.74-0.34,3.93-1.03c1.19-0.69,2.13-1.68,2.83-2.98c0.7-1.3,1.05-2.82,1.05-4.56
		C937.59,242.19,937.24,240.68,936.54,239.39z"/>
	<path class="st0" d="M951.79,235.61v13.57c0,1.12,0.24,1.91,0.71,2.37c0.48,0.46,1.3,0.69,2.48,0.69h2.81v3.23h-3.44
		c-2.13,0-3.72-0.49-4.79-1.47c-1.06-0.98-1.6-2.59-1.6-4.83v-13.57h-2.98v-3.15h2.98v-5.8h3.82v5.8h6.01v3.15H951.79z"/>
	<path class="st0" d="M982.49,245.27h-18.4c0.11,2.27,0.88,4.06,2.29,5.38s3.14,1.97,5.19,1.97c1.65,0,3.03-0.38,4.14-1.15
		c1.11-0.77,1.88-1.8,2.33-3.09h4.12c-0.62,2.21-1.85,4.01-3.7,5.4c-1.85,1.39-4.14,2.08-6.89,2.08c-2.18,0-4.14-0.49-5.86-1.47
		s-3.07-2.37-4.05-4.18c-0.98-1.81-1.47-3.9-1.47-6.28s0.48-4.47,1.43-6.26c0.95-1.79,2.29-3.17,4.01-4.14
		c1.72-0.97,3.7-1.45,5.94-1.45c2.18,0,4.11,0.48,5.77,1.43c1.67,0.95,2.96,2.25,3.88,3.91c0.92,1.65,1.39,3.51,1.39,5.59
		C982.61,243.7,982.57,244.46,982.49,245.27z M977.7,238.61c-0.64-1.08-1.52-1.9-2.63-2.46c-1.11-0.56-2.33-0.84-3.68-0.84
		c-1.96,0-3.63,0.64-5,1.91c-1.37,1.27-2.13,3.03-2.27,5.27h14.53C978.67,240.98,978.34,239.69,977.7,238.61z"/>
</g>
</svg>
